# xmcd CD database file
#
# Track frame offsets:
#	150
#	14420
#	33976
#	58572
#	78323
#	89006
#	114113
#	136956
#	160855
#	175665
#	193067
#	207348
#	224024
#	236632
#	248991
#
# Disc length: 3600 seconds
#
# Revision: 1
# Processed by: cddbd v1.5.1PL0 Copyright (c) Steve Scherf et al.
# Submitted via: CDex 1.51
#
DISCID=ce0e0e0f
DTITLE=Papa Salty - Swing it Big
DYEAR=2005
DGENRE=Blues
TTITLE0=Swing it big
TTITLE1=Three hundred pounds of joy
TTITLE2=Mermaid Mama
TTITLE3=In love with you
TTITLE4=Take your trouble
TTITLE5=How blue can you get
TTITLE6=Don't bite the hand
TTITLE7=Somebody tell me
TTITLE8=I quit
TTITLE9=Give me a whirl
TTITLE10=Lonely lonely nights
TTITLE11=Burnside boogie
TTITLE12=Yackity yack
TTITLE13=Think
TTITLE14=Get your hands out of my pockets
EXTD=YEAR: 2005
EXTT0=
EXTT1=
EXTT2=
EXTT3=
EXTT4=
EXTT5=
EXTT6=
EXTT7=
EXTT8=
EXTT9=
EXTT10=
EXTT11=
EXTT12=
EXTT13=
EXTT14=
PLAYORDER=
